<svg width="772" height="661" viewBox="0 0 772 661" fill="none" xmlns="http://www.w3.org/2000/svg">
<path d="M404.744 297.499C404.277 297.499 403.809 297.323 403.458 296.972C403.107 296.621 402.932 296.183 402.903 295.686L400.797 3.24544C400.797 2.25134 401.587 1.40343 402.61 1.40343L596.635 0C597.103 0 597.57 0.175429 597.921 0.526288C598.272 0.877146 598.448 1.31572 598.477 1.81277L600.611 294.224C600.611 295.218 599.822 296.066 598.798 296.066L404.744 297.499C404.774 297.499 404.774 297.499 404.744 297.499ZM404.452 5.05821L406.557 293.815L596.927 292.411L594.822 3.65477L404.452 5.05821Z" fill="#00A2B7"/>
<path d="M402.902 44.5592C401.908 44.5592 401.089 43.7405 401.089 42.7464C401.089 41.7523 401.908 40.9044 402.902 40.9044L595.611 39.501C596.605 39.501 597.424 40.3197 597.424 41.3138C597.424 42.3079 596.605 43.1558 595.611 43.1558L402.902 44.5592C402.931 44.5592 402.902 44.5592 402.902 44.5592Z" fill="#00A2B7"/>
<path d="M499.097 296.037C498.103 296.037 497.284 295.218 497.284 294.224L495.442 42.0739C495.442 41.0798 496.231 40.2319 497.255 40.2319C498.249 40.2319 499.067 41.0506 499.067 42.0447L500.909 294.195C500.939 295.189 500.12 296.037 499.097 296.037Z" fill="#00A2B7"/>
<path d="M632.979 191.247C631.985 191.247 631.166 190.429 631.166 189.434L630.991 165.547C630.991 164.553 631.809 163.705 632.803 163.705C633.798 163.705 634.616 164.524 634.616 165.518L634.792 189.405C634.821 190.429 634.002 191.247 632.979 191.247C633.008 191.247 633.008 191.247 632.979 191.247Z" fill="#00A2B7"/>
<path d="M695.051 218.701C694.057 218.701 693.238 217.883 693.238 216.889L693.063 193.001C693.063 192.007 693.882 191.159 694.876 191.159C695.87 191.159 696.689 191.978 696.689 192.972L696.864 216.859C696.893 217.883 696.075 218.701 695.051 218.701C695.08 218.701 695.051 218.701 695.051 218.701Z" fill="#00A2B7"/>
<path d="M611.313 193.411C610.319 193.411 609.5 192.593 609.5 191.598C609.5 190.604 610.319 189.756 611.313 189.756L731.833 188.879C732.827 188.879 733.645 189.698 733.645 190.692C733.645 191.686 732.827 192.534 731.833 192.534L611.313 193.411Z" fill="#00A2B7"/>
<path d="M644.176 219.082C643.182 219.082 642.363 218.263 642.363 217.269C642.363 216.275 643.182 215.427 644.176 215.427L730.429 214.784C731.423 214.784 732.242 215.603 732.242 216.597C732.242 217.591 731.423 218.439 730.429 218.439L644.176 219.082Z" fill="#00A2B7"/>
<path d="M129.467 358.402C128.473 358.402 127.654 357.583 127.654 356.589L127.479 332.701C127.479 331.707 128.298 330.859 129.292 330.859C130.286 330.859 131.105 331.678 131.105 332.672L131.28 356.56C131.309 357.583 130.491 358.402 129.467 358.402Z" fill="#00A2B7"/>
<path d="M67.8031 386.763C66.809 386.763 65.9904 385.944 65.9904 384.95L65.8149 361.062C65.8149 360.068 66.6044 359.22 67.6277 359.22C68.6218 359.22 69.4405 360.039 69.4405 361.033L69.6159 384.921C69.6451 385.944 68.8265 386.763 67.8031 386.763Z" fill="#00A2B7"/>
<path d="M30.6712 361.121C29.6771 361.121 28.8584 360.302 28.8584 359.308C28.8584 358.314 29.6478 357.466 30.6712 357.466L151.191 356.589C152.185 356.589 153.004 357.408 153.004 358.402C153.004 359.396 152.214 360.244 151.191 360.244L30.6712 361.121Z" fill="#00A2B7"/>
<path d="M32.4544 387.026C31.4603 387.026 30.6416 386.207 30.6416 385.213C30.6416 384.219 31.431 383.371 32.4544 383.371L118.707 382.728C119.701 382.728 120.52 383.546 120.52 384.541C120.52 385.535 119.701 386.383 118.707 386.383L32.4544 387.026Z" fill="#00A2B7"/>
<path d="M770.309 637.949C770.397 648.767 598.009 658.795 385.301 660.345C172.593 661.895 0.087748 654.38 3.34583e-05 643.562C-0.0876811 632.744 172.301 622.715 385.009 621.166C597.716 619.616 770.222 627.13 770.309 637.949Z" fill="#00A2B7"/>
<path d="M476.116 567.543L476.642 640.083L506.757 639.879L523.511 578.069L529.709 555.176L476.116 567.543Z" fill="#731F07"/>
<g opacity="0.5">
<g opacity="0.5">
<g opacity="0.5">
<g opacity="0.5">
<g opacity="0.5">
<path opacity="0.5" d="M476.116 567.543L476.262 586.051C489.916 584.443 509.36 580.847 523.511 578.069L529.709 555.176L476.116 567.543Z" fill="#731F07"/>
</g>
</g>
</g>
</g>
</g>
<path d="M306.503 568.771L307.029 641.34L276.943 641.545L259.283 579.999L252.734 557.193L306.503 568.771Z" fill="#731F07"/>
<g opacity="0.5">
<g opacity="0.5">
<g opacity="0.5">
<g opacity="0.5">
<g opacity="0.5">
<path opacity="0.5" d="M306.503 568.771L306.649 587.279C292.995 585.846 273.493 582.542 259.283 579.999L252.734 557.193L306.503 568.771Z" fill="#731F07"/>
</g>
</g>
</g>
</g>
</g>
<path d="M190.136 161.22C193.001 189.201 217.239 290.92 229.432 341.064C230.66 346.064 231.741 350.537 232.677 354.396C234.987 363.782 236.361 369.396 236.361 369.396L489.564 362.232C489.564 362.232 490.236 358.987 491.435 353.227C500.177 310.773 536.228 131.748 526.229 114.38C525.527 113.152 524.503 111.953 523.159 110.784C522.223 109.936 521.112 109.117 519.884 108.299C518.656 107.48 517.252 106.691 515.732 105.901C497.341 96.3694 459.068 88.5921 415.62 84.1479C364.395 78.885 306.006 78.3002 264.634 84.9373C263.465 85.1127 262.295 85.3174 261.126 85.5221C258.114 86.0484 255.22 86.5746 252.442 87.1302C198.205 97.8021 187.796 112.684 187.621 133.619V133.648C187.592 141.864 189.083 151.016 190.136 161.22Z" fill="#A5410F"/>
<path d="M487.606 307.995C488.133 307.995 488.6 307.615 488.688 307.089C488.776 306.65 496.466 262.472 502.635 217.591C506.26 191.218 508.629 169.728 509.71 153.793C511.552 126.397 509.184 120.959 507.254 119.234C496.056 109.322 438.457 102.1 405.125 98.6792C389.161 97.0419 372.905 96.6033 356.795 97.3928C318.288 99.264 252.034 103.971 240.865 114.409C238.994 116.164 236.772 121.69 239.403 149.027C240.924 164.962 243.935 186.335 248.292 212.62C255.718 257.326 264.694 301.271 264.782 301.709C264.899 302.294 265.484 302.674 266.069 302.557C266.653 302.44 267.033 301.855 266.916 301.271C266.829 300.832 257.882 256.946 250.455 212.27C237.474 134.116 239.813 118.444 242.356 116.047C250.134 108.766 291.857 102.773 356.882 99.6149C372.876 98.8254 389.015 99.264 404.862 100.901C437.931 104.293 495.033 111.427 505.763 120.93C508.395 123.239 511.172 138.853 500.442 217.328C494.302 262.179 486.612 306.329 486.524 306.767C486.408 307.352 486.817 307.937 487.431 308.054C487.46 307.995 487.548 307.995 487.606 307.995Z" fill="#731F07"/>
<path d="M187.653 133.619C187.828 141.309 189.144 149.759 190.109 159.086C192.974 187.067 217.213 288.786 229.405 338.93L270.777 338.637C270.777 338.637 223.937 172.535 220.955 131.631C218.996 104.937 238.615 92.5396 252.474 87.1305C198.237 97.8024 187.828 112.685 187.653 133.619Z" fill="#731F07"/>
<path d="M491.348 356.443C491.348 356.443 533.919 351.999 537.515 367.378C540.322 379.395 537.457 487.109 536.083 533.919C535.703 546.199 545.234 556.491 557.514 557.105C560.233 557.251 563.07 557.339 566.023 557.426C580.145 557.836 596.138 557.514 607.102 554.941C630.961 549.357 631.487 515.44 639.557 459.128C647.626 402.815 654.614 302.557 602.044 283.669C600.231 283.026 598.419 282.441 596.606 281.886C545.994 266.974 498.073 297.528 498.073 297.528C486.641 329.836 491.348 356.443 491.348 356.443Z" fill="#731F07"/>
<path d="M565.992 557.426C580.114 557.835 596.108 557.514 607.072 554.941C630.93 549.356 631.456 515.44 639.526 459.127C647.596 402.815 654.584 302.557 602.014 283.669C600.201 283.026 598.388 282.441 596.575 281.885C587.658 284.078 579.5 290.072 575.173 303.112C563.419 338.549 583.389 461.115 565.992 557.426Z" fill="#A5410F"/>
<path d="M593.83 548.801C604.706 548.714 613.156 544.152 618.273 535.586C626.255 522.165 637.102 407.347 637.57 402.464C637.629 401.879 637.19 401.324 636.576 401.265C635.991 401.207 635.436 401.645 635.377 402.259C635.26 403.458 624.121 521.464 616.372 534.475C604.619 554.21 578.304 543.918 578.041 543.831C577.486 543.597 576.842 543.889 576.638 544.445C576.404 545 576.696 545.644 577.252 545.848C577.544 545.965 584.357 548.655 592.836 548.801C593.187 548.801 593.508 548.801 593.83 548.801Z" fill="#731F07"/>
<path d="M588.302 322.907C588.302 322.907 589.003 303.639 603.564 305.072C618.095 306.504 619.031 338.257 606.078 342.467C587.103 348.607 588.302 322.907 588.302 322.907Z" fill="#731F07"/>
<path d="M621.72 316.913C621.808 316.913 621.866 316.913 621.954 316.884C622.539 316.738 622.919 316.153 622.773 315.568C622.597 314.866 618.592 297.996 604.499 294.751C598.798 293.435 593.739 294.487 589.471 297.908C583.301 302.85 580.494 311.709 580.524 316.124C580.524 316.738 581.021 317.206 581.605 317.206C582.219 317.206 582.687 316.709 582.687 316.124C582.658 312.674 585.026 304.253 590.816 299.633C594.529 296.651 598.973 295.745 603.973 296.914C616.75 299.867 620.58 315.948 620.609 316.094C620.755 316.592 621.194 316.913 621.72 316.913Z" fill="#731F07"/>
<path d="M194.991 351.414C197.798 362.846 199.493 369.659 199.493 369.659L507.459 360.946C507.459 360.946 508.278 356.999 509.711 350.011C455.064 341.122 267.765 345.625 194.991 351.414Z" fill="#731F07"/>
<path d="M197.853 409.569C197.97 415.387 198.146 421.527 198.38 427.901C200.514 485.296 208.087 560.935 233.027 567.368C273.639 577.893 525.204 581.548 538.157 557.427C542.016 550.234 544.384 538.129 545.876 523.335C546.168 520.44 546.431 517.429 546.636 514.359C548.595 487.606 548.39 454.333 549.062 425.358C549.238 417.58 549.501 410.095 549.881 403.137C552.63 352.028 511.053 351.619 511.053 351.619C452.255 350.683 365.944 354.046 298.784 357.379C263.785 359.104 233.992 360.829 216.04 361.911C204.49 362.613 197.853 363.022 197.853 363.022C197.853 363.022 197.298 382.553 197.853 409.569Z" fill="#A5410F"/>
<path d="M395.71 525.177C400.768 525.147 406.002 525.06 411.411 524.913C492.576 522.662 539.152 504.067 539.62 503.862C540.293 503.57 540.644 502.809 540.351 502.108C540.059 501.435 539.299 501.084 538.597 501.377C538.129 501.552 491.962 520.001 411.323 522.224C330.596 524.446 286.154 513.277 285.716 513.189C284.985 513.014 284.283 513.423 284.078 514.154C283.903 514.856 284.312 515.586 285.043 515.791C285.453 515.879 324.515 525.703 395.71 525.177Z" fill="#731F07"/>
<path d="M197.855 409.569C197.972 415.387 198.148 421.527 198.382 427.901C200.516 485.296 208.089 560.935 233.029 567.368C273.641 577.893 525.206 581.548 538.159 557.426C542.018 550.234 544.387 538.129 545.878 523.335C546.17 520.44 546.433 517.429 546.638 514.359C534.767 522.399 499.038 533.1 474.449 535.79C371.94 547.047 292.002 533.305 292.002 533.305C305.072 477.665 300.832 389.015 298.756 357.32C263.758 359.045 233.965 360.77 216.012 361.852L197.855 409.569Z" fill="#731F07"/>
<path d="M499.39 364.337C496.407 367.056 493.074 369.629 489.361 372.056C489.244 372.144 489.127 372.202 489.01 372.29C486.408 373.986 483.659 375.565 480.765 377.085C479.712 377.641 478.66 378.167 477.607 378.664C469.157 382.757 459.596 386.149 449.334 388.605C448.398 388.839 447.463 389.043 446.498 389.248C443.779 389.862 441.001 390.388 438.194 390.856C437.258 391.032 436.294 391.178 435.358 391.324C424.511 392.961 413.137 393.575 401.676 392.961C400.331 392.874 398.986 392.815 397.641 392.698C394.044 392.435 390.448 392.026 386.881 391.47C386.793 391.47 386.706 391.441 386.618 391.441C385.536 391.266 384.454 391.119 383.372 390.915C377.554 389.921 371.794 388.546 366.122 386.821C361.181 385.33 356.298 383.547 351.532 381.441C350.713 381.091 349.924 380.711 349.105 380.36C348.111 379.892 347.088 379.424 346.123 378.927C346.035 378.898 345.948 378.839 345.831 378.781C340.1 362.554 334.194 304.837 332.615 287.558C332.293 284.108 332.059 280.687 331.855 277.237C331.826 276.652 331.796 276.038 331.767 275.453C331.709 274.547 331.679 273.669 331.65 272.763C331.387 266.477 331.328 260.161 331.387 253.758C331.387 252.735 331.416 251.682 331.445 250.659C331.445 250.162 331.445 249.636 331.475 249.139C331.475 249.08 331.475 248.992 331.475 248.934C331.504 248.203 331.504 247.472 331.533 246.712C331.709 240.104 332.001 233.409 332.381 226.596C332.41 225.953 332.44 225.339 332.498 224.696C332.527 224.374 332.527 224.052 332.556 223.731C332.79 219.754 333.054 215.719 333.346 211.655C333.375 211.041 333.434 210.398 333.492 209.755C333.521 209.521 333.521 209.287 333.551 209.053C334.252 199.288 335.042 189.23 335.802 178.762C336.211 173.032 336.942 167.71 337.907 162.828C338.024 162.214 338.141 161.629 338.287 161.044C340.275 152.009 343.199 144.554 347.117 138.823C347.439 138.326 347.79 137.829 348.14 137.361C349.427 135.636 350.801 134.116 352.263 132.771C353.696 131.455 355.216 130.285 356.853 129.291C359.894 127.449 363.227 126.251 366.882 125.695C370.332 125.198 373.461 124.496 376.326 123.707C376.852 123.561 377.379 123.414 377.876 123.268C379.484 122.8 381.004 122.274 382.437 121.748C383.168 121.455 383.899 121.192 384.571 120.9C385.127 120.666 385.682 120.432 386.209 120.198C386.442 120.081 386.706 119.994 386.939 119.877C387.144 119.789 387.378 119.672 387.583 119.584C387.963 119.409 388.314 119.233 388.665 119.058C394.541 116.134 397.875 113.503 397.875 113.503L438.282 113.912C438.603 114.38 438.925 114.818 439.217 115.257C439.247 115.286 439.276 115.315 439.276 115.345C440.855 117.421 442.609 119.175 444.48 120.666C444.948 121.046 445.445 121.397 445.942 121.748C446.849 122.391 447.784 122.976 448.749 123.531C449.422 123.911 450.094 124.262 450.737 124.584C451.264 124.847 451.79 125.081 452.316 125.315C452.462 125.373 452.609 125.461 452.755 125.52C453.164 125.695 453.544 125.87 453.953 126.017C454.158 126.104 454.392 126.192 454.597 126.28C455.708 126.718 456.819 127.098 457.93 127.479C457.959 127.479 457.959 127.479 457.988 127.479C466.818 130.402 475.824 131.864 481.437 137.536C482.022 138.121 482.548 138.764 483.075 139.437C483.893 140.548 484.624 141.805 485.209 143.209C485.794 144.612 486.262 146.191 486.583 147.945C486.788 148.939 486.876 149.992 486.905 151.161C487.11 160.05 483.221 174.698 481.408 198.82C481.35 199.521 481.291 200.194 481.262 200.925C480.999 204.814 480.794 208.907 480.648 213.293C480.619 213.936 480.619 214.608 480.589 215.252C480.531 217.591 480.502 220.017 480.502 222.503C480.502 223.789 480.502 225.076 480.502 226.391C480.531 228.964 480.589 231.596 480.648 234.315C480.677 235.134 480.706 235.952 480.736 236.771C480.794 238.437 480.853 240.133 480.97 241.858C481.028 242.765 481.087 243.7 481.116 244.607C481.145 245.25 481.203 245.893 481.233 246.536C481.233 246.741 481.262 246.946 481.262 247.121C481.467 250.279 481.701 253.554 482.022 256.887C482.022 257.062 482.051 257.238 482.081 257.413C482.11 257.852 482.168 258.319 482.198 258.758C482.431 261.419 482.724 264.167 483.045 266.945C483.426 270.278 483.806 273.699 484.273 277.207C486.115 291.183 490.297 318.901 494.77 342.204C495.472 345.888 496.173 349.426 496.875 352.788C496.963 353.139 497.021 353.49 497.109 353.841C497.811 357.642 498.6 361.179 499.39 364.337Z" fill="white"/>
<path d="M508.335 209.959C498.54 209.959 489.126 206.597 481.173 200.954C481.144 200.925 481.085 200.895 481.056 200.866C479.565 199.814 478.161 198.673 476.816 197.504C463.981 186.276 457.139 169.932 454.303 153.237C452.929 145.109 451.584 134.905 452.695 125.519C453.104 125.695 453.484 125.87 453.894 126.016C454.098 126.104 454.332 126.192 454.537 126.279C454.361 127.771 454.303 129.262 454.274 130.753C453.923 148.822 457.461 168.382 467.285 183.762C469.945 187.943 473.22 191.832 476.904 195.194C478.308 196.48 479.799 197.708 481.319 198.819C489.126 204.579 498.423 208.146 508.335 208.146C509.475 208.176 509.475 209.959 508.335 209.959Z" fill="#D7C4AC"/>
<path d="M445.853 121.777C441.993 128.385 437.578 134.642 432.491 140.373C417.287 157.565 395.826 169.787 372.64 170.839C372.143 170.868 371.617 170.898 371.12 170.898C359.512 171.19 347.905 168.383 337.788 162.857C332.233 159.846 327.175 155.986 322.789 151.396C323.198 150.986 323.637 150.577 324.046 150.168C328.14 154.495 332.935 158.179 338.139 161.074C340.566 162.418 343.08 163.617 345.683 164.641C354.513 168.12 363.752 169.436 372.962 168.939C385.973 168.266 398.867 163.968 410.094 157.039C424.567 148.15 435.912 135.227 444.391 120.637C444.888 121.076 445.356 121.427 445.853 121.777Z" fill="#D7C4AC"/>
<path d="M422.198 152.887C413.631 152.799 405.795 147.39 399.334 137.069C393.808 128.239 391.235 119.029 391.147 118.649C390.913 117.83 391.41 117.012 392.2 116.778C393.018 116.544 393.837 117.041 394.071 117.83C394.158 118.181 404.187 153.559 425.853 149.524C431.525 148.472 435.706 145.84 438.337 141.689C444.068 132.625 440.647 119.234 440.618 119.117C440.413 118.298 440.881 117.479 441.7 117.275C442.518 117.07 443.337 117.538 443.542 118.356C443.688 118.97 447.313 133.151 440.881 143.326C437.782 148.209 432.928 151.308 426.408 152.507C424.976 152.799 423.572 152.916 422.198 152.887Z" fill="#D5963D"/>
<path d="M497.226 221.245C496.349 221.509 495.501 221.772 494.624 222.006C493.513 221.509 492.431 220.982 491.32 220.456C487.724 218.76 484.127 217.035 480.531 215.281C478.981 214.521 477.461 213.79 475.911 213.03C449.158 200.019 421.704 187.066 391.413 187.417C382.057 187.534 372.934 189.054 364.309 192.095C357.321 194.551 350.655 198.001 344.456 202.445C340.509 205.281 336.796 208.41 333.258 211.743C329.633 215.105 326.212 218.702 322.908 222.386C322.265 222.21 321.651 222.006 321.037 221.801C324.984 217.386 329.077 213.117 333.463 209.141C337.966 205.047 342.761 201.247 347.965 197.943C353.637 194.346 359.573 191.627 365.654 189.697C391.852 181.365 421.002 187.3 446.41 197.592C456.439 201.656 466.263 206.363 476.058 211.1C477.578 211.831 479.069 212.562 480.589 213.293C486.086 216.012 491.641 218.672 497.226 221.245Z" fill="#D7C4AC"/>
<path d="M481.173 246.566C476.904 245.689 472.664 244.782 468.395 243.876C453.192 240.689 437.988 237.385 422.755 234.374C407.96 231.45 392.844 229.14 377.699 230.134C361.062 231.216 343.431 237.414 331.415 249.168C331.415 249.11 331.415 249.022 331.415 248.963C331.444 248.232 331.444 247.501 331.473 246.741C334.631 243.817 338.11 241.244 341.823 238.993C366.91 223.965 396.937 227.415 424.334 232.882C443.28 236.654 462.168 240.63 481.056 244.636C481.085 245.279 481.114 245.923 481.173 246.566Z" fill="#D7C4AC"/>
<path d="M387.874 289.956C385.447 302.265 380.009 314.487 374.541 325.714C368.986 337.117 362.027 347.847 352.817 356.648C351.999 357.437 350.712 356.18 351.56 355.391C361.033 346.356 368.05 335.246 373.664 323.492C378.518 313.317 383.225 302.44 385.769 291.418C388.313 280.483 387.435 267.735 376.91 261.273C368.138 255.922 356.677 256.595 347.818 261.302C341.385 264.723 336.181 269.752 331.766 275.454C331.707 274.547 331.678 273.67 331.649 272.764C336.941 266.302 343.315 260.776 351.209 257.794C360.361 254.314 371.764 255.016 379.717 261.039C388.751 267.91 389.95 279.547 387.874 289.956Z" fill="#D7C4AC"/>
<path d="M452.519 361.121C439.099 352.554 427.082 341.853 417.141 329.398C402.814 311.475 383.108 278.669 409.451 261.77C420.503 254.665 434.567 253.144 447.373 252.969C459.039 252.794 470.647 254.226 481.933 256.945C481.933 257.121 481.962 257.296 481.991 257.472C482.021 257.91 482.079 258.378 482.108 258.817C469.682 255.776 456.876 254.314 444.069 254.84C431.877 255.337 418.398 257.15 408.34 264.693C396.791 273.377 396.382 287.499 401.294 300.101C406.177 312.586 414.539 324.135 423.398 334.076C432.169 343.929 442.286 352.496 453.426 359.601C454.39 360.185 453.513 361.735 452.519 361.121Z" fill="#D7C4AC"/>
<path d="M320.773 194.288C314.574 199.405 306.183 199.931 298.727 197.504C296.154 196.656 293.727 195.516 291.447 194.171C291.768 193.616 292.09 193.06 292.382 192.504C300.54 197.475 309.691 199.814 318.317 193.908C325.48 189.025 326.533 180.371 322.615 172.973C320.305 168.646 316.709 165.342 312.761 162.477C313.142 162.009 313.522 161.571 313.872 161.132C318.521 164.553 322.732 168.558 325.071 173.967C328.199 181.16 326.942 189.201 320.773 194.288Z" fill="#D7C4AC"/>
<path d="M531.23 205.106C530.674 205.486 530.06 205.866 529.388 206.305C520.47 202.855 512.429 197.066 506.465 189.435C497.606 178.09 493.892 163.325 495.734 149.174C496.261 149.671 496.816 150.197 497.342 150.723C495.939 163.997 499.565 177.71 507.839 188.323C513.891 196.042 522.107 201.802 531.23 205.106Z" fill="#D7C4AC"/>
<path d="M375.77 144.174C374.162 144.963 372.495 145.519 370.829 145.87C364.426 147.244 357.613 145.782 351.912 142.39C350.157 141.338 348.52 140.139 347.029 138.823C345.742 137.683 344.514 136.426 343.403 135.11C343.93 134.818 344.456 134.496 344.953 134.233C345.918 135.344 346.941 136.397 348.052 137.391C349.28 138.473 350.567 139.467 351.97 140.344C357.35 143.765 363.929 145.46 370.127 144.232C371.735 143.911 373.343 143.385 374.893 142.654C382.641 138.911 386.383 131.017 384.863 122.625C384.775 122.07 384.629 121.514 384.512 120.988C385.068 120.754 385.623 120.52 386.15 120.286C386.5 121.631 386.764 123.006 386.91 124.438C387.67 132.83 383.372 140.49 375.77 144.174Z" fill="#D7C4AC"/>
<path d="M363.134 451.058C363.134 451.058 360.123 452.344 355.24 454.537C353.836 455.151 352.316 455.853 350.649 456.613C348.427 457.607 346.03 458.718 343.428 459.946C341.966 460.619 340.416 461.35 338.866 462.081C319.394 471.291 293.81 484.448 284.396 493.804C283.723 494.476 283.109 495.12 282.495 495.763C268.315 510.674 267.057 521.083 263.52 519.826C259.836 518.51 257.263 510.265 261.297 503.57C264.104 498.95 265.42 492.81 268.958 485.676C269.923 483.746 271.034 481.758 272.408 479.711C278.431 470.647 288.986 460.297 294.541 452.929C294.892 452.461 295.243 451.993 295.535 451.526C300.009 445.093 299.833 433.895 309.394 428.369C314.072 425.679 320.212 424.948 326.352 425.211C327.434 425.24 328.545 425.328 329.627 425.416C331.235 425.562 332.843 425.767 334.393 426.001C336.527 426.322 338.574 426.732 340.445 427.141C342.258 427.55 343.895 427.96 345.328 428.34C348.778 429.275 350.942 430.036 350.942 430.036L363.134 451.058Z" fill="white"/>
<path d="M326.355 425.211C322.057 434.509 311.414 452.812 294.514 452.929C294.865 452.461 295.216 451.993 295.508 451.525C299.982 445.093 299.806 433.895 309.367 428.369C314.045 425.679 320.215 424.948 326.355 425.211Z" fill="#425045"/>
<path d="M282.467 495.763C268.287 510.674 267.03 521.083 263.492 519.826C259.808 518.51 257.235 510.265 261.27 503.57C264.076 498.95 265.392 492.81 268.93 485.676C273.725 487.693 279.017 490.88 282.467 495.763Z" fill="#425045"/>
<path d="M355.216 454.537C353.813 455.151 352.293 455.853 350.626 456.613C346.357 451.73 343.346 445.327 341.738 437.608C340.919 433.69 340.597 430.065 340.451 427.17C342.264 427.579 343.901 427.989 345.334 428.369C345.48 430.796 345.831 433.632 346.445 436.672C347.731 442.725 350.275 449.479 355.216 454.537Z" fill="#425045"/>
<path d="M334.397 426C332.847 425.766 331.268 425.562 329.631 425.416C329.28 428.486 328.929 433.573 329.543 439.362C330.537 448.718 333.724 456.437 338.841 462.08C340.42 461.349 341.94 460.618 343.402 459.946C332.964 449.712 333.666 432.579 334.397 426Z" fill="#425045"/>
<path d="M350.596 420.65C349.31 452.841 369.367 454.712 369.367 454.712C369.367 454.712 373.49 454.595 382.992 451.993C383.87 451.759 384.805 451.496 385.799 451.204C391.968 449.391 400.009 446.672 410.213 442.549C411.412 442.052 412.669 441.555 413.926 441.029C420.593 438.251 428.136 434.889 436.557 430.854C449.305 424.772 464.128 417.112 481.233 407.522C530.528 379.892 573.83 341.502 589.823 309.808C600.641 288.435 599.033 270.073 578.42 260.161C574.795 258.407 570.994 257.413 567.105 256.974C541.083 254.138 515.003 279.108 515.003 279.108C462.52 314.866 446.293 345.128 424.891 369.512C424.014 370.536 423.107 371.53 422.201 372.524C421.616 373.167 421.031 373.781 420.388 374.424C416.938 377.991 412.961 381.529 408.722 384.921C394.6 396.294 377.408 406.44 365.391 412.989C364.543 413.457 363.724 413.896 362.935 414.334C355.508 418.311 350.596 420.65 350.596 420.65Z" fill="#131E07"/>
<path d="M362.961 414.334C363.458 416.644 364.16 418.954 364.978 421.235C365.3 422.083 365.622 422.96 365.972 423.808C371.06 436.468 379.714 447.871 383.018 451.993C383.895 451.759 384.831 451.496 385.825 451.204C383.428 448.28 373.691 435.941 368.341 422.463C367.99 421.615 367.668 420.738 367.376 419.89C366.557 417.609 365.914 415.299 365.446 413.019C364.569 413.457 363.75 413.896 362.961 414.334Z" fill="#425045"/>
<path d="M589.851 309.808C566.314 289.458 565.408 268.261 567.104 257.004C570.992 257.413 574.793 258.437 578.419 260.162C599.032 270.074 600.669 288.406 589.851 309.808Z" fill="#425045"/>
<path d="M364.951 421.235C365.272 422.083 365.594 422.96 365.945 423.808C366.705 423.369 367.494 422.93 368.313 422.463C387.493 411.323 415.971 390.885 448.046 365.068C478.103 340.859 512.37 310.656 516.58 301.563C518.861 296.651 518.977 292.908 516.96 290.511C513.949 286.885 507.282 287.645 504.271 288.23C503.51 288.376 503.013 289.136 503.189 289.897C503.335 290.481 503.861 290.891 504.417 290.92C504.534 290.92 504.622 290.92 504.738 290.891C507.692 290.335 512.925 289.926 514.855 292.236C516.463 294.165 515.323 297.733 514.095 300.422C510.703 307.761 482.225 334.076 446.321 362.963C420.971 383.371 389.248 407.113 367.319 419.919C366.53 420.357 365.74 420.796 364.951 421.235Z" fill="#425045"/>
<path d="M356.762 415.328C361.733 431.234 368.574 445.298 379.802 455.034C379.802 455.034 372.931 462.11 365.007 459.303C358.955 457.168 343.839 433.602 345.476 419.305C349.628 415.972 353.429 414.393 356.762 415.328Z" fill="#425045"/>
<path d="M491.435 447.958C491.435 447.958 494.534 449.04 499.534 450.911C500.966 451.437 502.545 452.022 504.241 452.665C506.521 453.513 509.007 454.478 511.667 455.531C513.188 456.115 514.737 456.729 516.375 457.373C536.403 465.325 562.776 476.787 572.775 485.529C573.477 486.143 574.149 486.757 574.793 487.342C589.909 501.288 591.838 511.639 595.259 510.118C598.856 508.569 600.902 500.177 596.429 493.774C593.33 489.33 591.634 483.278 587.628 476.407C586.546 474.535 585.289 472.635 583.798 470.676C577.219 462.022 565.992 452.373 559.998 445.356C559.618 444.917 559.238 444.449 558.916 444.04C554.034 437.9 553.478 426.731 543.595 421.848C538.771 419.451 532.573 419.129 526.462 419.772C525.38 419.889 524.298 420.035 523.216 420.211C521.608 420.474 520.03 420.766 518.509 421.088C516.404 421.556 514.387 422.082 512.545 422.638C510.761 423.164 509.153 423.661 507.749 424.158C504.358 425.298 502.253 426.234 502.253 426.234L491.435 447.958Z" fill="white"/>
<path d="M526.465 419.772C531.377 428.778 543.131 446.35 560.03 445.385C559.65 444.946 559.27 444.478 558.948 444.069C554.066 437.929 553.51 426.76 543.628 421.877C538.774 419.451 532.576 419.129 526.465 419.772Z" fill="#425045"/>
<path d="M574.794 487.342C589.91 501.288 591.84 511.639 595.261 510.118C598.857 508.569 600.904 500.177 596.43 493.774C593.331 489.33 591.635 483.278 587.63 476.407C583.01 478.746 577.922 482.254 574.794 487.342Z" fill="#425045"/>
<path d="M499.562 450.911C500.995 451.437 502.574 452.022 504.27 452.665C508.217 447.519 510.819 440.941 511.93 433.105C512.486 429.158 512.603 425.503 512.515 422.608C510.731 423.135 509.123 423.632 507.72 424.129C507.72 426.555 507.574 429.421 507.135 432.462C506.287 438.631 504.182 445.531 499.562 450.911Z" fill="#425045"/>
<path d="M511.699 455.53C513.219 456.115 514.769 456.729 516.406 457.372C521.143 451.437 523.833 443.542 524.213 434.128C524.447 428.309 523.774 423.251 523.248 420.21C521.64 420.474 520.061 420.766 518.541 421.088C519.652 427.608 521.464 444.654 511.699 455.53Z" fill="#425045"/>
<path d="M256.271 325.011C275.48 354.864 321.589 386.236 370.797 409.831C417.724 432.316 447.167 442.9 464.154 447.9C464.71 448.075 465.265 448.221 465.821 448.367C478.539 451.993 483.656 452.285 483.656 452.285C483.656 452.285 503.538 449.128 500.205 417.082C500.205 417.082 494.299 412.521 485.469 405.709C484.709 405.124 483.919 404.51 483.13 403.896C466.318 390.944 440.822 371.325 424.127 358.489C377.346 322.526 373.048 324.631 329.922 289.312C329.922 289.312 302.759 265.512 277.995 267.178C272.615 267.529 267.352 268.874 262.528 271.593C241.593 283.376 242.178 303.083 256.271 325.011Z" fill="#131E07"/>
<path d="M464.187 447.87C464.245 447.958 464.304 448.046 464.391 448.104C464.596 448.28 464.83 448.397 465.064 448.455C465.327 448.514 465.59 448.485 465.853 448.368C465.999 448.309 466.175 448.192 466.292 448.046C475.619 438.134 481.116 422.258 483.776 412.668C484.039 411.703 484.273 410.796 484.507 409.978C484.975 408.136 485.297 406.645 485.501 405.709C484.741 405.124 483.952 404.51 483.162 403.896C483.133 403.955 483.133 403.984 483.133 404.042C483.133 404.101 482.782 405.884 482.051 408.691C481.847 409.51 481.613 410.416 481.35 411.381C478.777 420.679 473.367 436.585 464.391 446.175C463.894 446.672 463.836 447.344 464.187 447.87Z" fill="#425045"/>
<path d="M277.997 267.178C277.997 277.909 276.476 313.667 256.302 325.011C242.209 303.083 241.624 283.376 262.559 271.593C267.354 268.874 272.617 267.529 277.997 267.178Z" fill="#425045"/>
<path d="M329.75 302.382C334.516 311.212 370.654 339.134 402.231 361.355C433.604 383.459 461.585 401.09 481.321 411.382C482.168 411.82 482.987 412.23 483.777 412.639C484.04 411.674 484.274 410.768 484.508 409.949C483.689 409.54 482.87 409.101 482.051 408.662C459.597 396.85 428.809 376.705 403.81 359.104C366.151 332.585 336.007 308.171 332.147 301.066C330.744 298.493 329.399 294.984 330.861 292.967C332.615 290.54 337.878 290.599 340.86 290.95C340.919 290.95 340.977 290.95 341.036 290.95C341.679 290.95 342.234 290.482 342.351 289.838C342.498 289.078 341.971 288.347 341.182 288.23C338.141 287.85 331.446 287.529 328.668 291.33C326.797 293.932 327.148 297.645 329.75 302.382Z" fill="#425045"/>
<path d="M493.715 412.142C489.768 428.34 483.862 442.813 473.278 453.251C473.278 453.251 480.587 459.859 488.306 456.584C494.212 454.069 507.779 429.597 505.235 415.417C500.879 412.347 496.99 411.002 493.715 412.142Z" fill="#425045"/>
<path d="M553.303 274.693C546.491 291.037 530.497 290.482 513.218 265.688C503.218 251.332 494.447 236.362 487.576 223.731C484.915 218.848 482.576 214.316 480.529 210.31L480.792 186.628L510.06 167.798C510.06 167.798 520.703 184.347 531.579 204.814C545.058 230.134 558.858 261.39 553.303 274.693Z" fill="#E8A36F"/>
<path d="M447.169 309.691C461.934 299.604 480.062 287.733 487.254 281.3C504.944 265.453 535.995 240.075 552.222 252.559C552.222 252.559 565.671 278.698 543.684 295.978C522.75 312.439 475.793 330.771 453.894 337.759C451.35 328.491 448.455 319.222 447.169 309.691Z" fill="#E8A36F"/>
<path d="M510.939 263.348C511.173 263.348 511.407 263.261 511.611 263.085C519.827 255.951 531.493 251.536 531.61 251.478C532.166 251.273 532.458 250.63 532.253 250.074C532.049 249.519 531.406 249.226 530.85 249.431C530.353 249.606 518.687 254.051 510.179 261.419C509.711 261.828 509.682 262.5 510.062 262.968C510.266 263.261 510.617 263.378 510.939 263.348Z" fill="#B05935"/>
<path d="M512.723 261.887C513.249 261.857 513.688 261.477 513.746 260.951C514.448 256.039 520.588 251.273 520.646 251.215C521.114 250.835 521.202 250.162 520.851 249.665C520.471 249.197 519.798 249.08 519.301 249.46C519.009 249.665 512.401 254.84 511.553 260.629C511.466 261.243 511.875 261.799 512.489 261.857C512.577 261.887 512.664 261.887 512.723 261.887Z" fill="#B05935"/>
<path d="M534.477 202.884C534.477 202.884 533.482 203.615 531.64 204.843C531.523 204.93 531.377 205.018 531.26 205.106C530.705 205.486 530.091 205.866 529.418 206.305C527.313 207.62 524.623 209.228 521.466 210.954C520.968 211.217 520.442 211.509 519.916 211.772C513.776 215.018 505.999 218.555 497.256 221.245C496.379 221.509 495.531 221.772 494.654 222.006C494.479 222.064 494.332 222.093 494.157 222.152C493.572 222.327 493.017 222.473 492.403 222.62C490.853 223.029 489.245 223.409 487.637 223.731C485.97 224.081 484.275 224.403 482.579 224.666C482.579 224.666 481.789 223.906 480.444 222.532L480.59 210.31L480.854 186.627L481.409 137.536C485.707 140.402 490.561 144.203 495.765 149.144C496.291 149.641 496.847 150.167 497.373 150.694C499.888 153.179 502.519 155.927 505.18 158.968C505.589 159.436 505.969 159.874 506.379 160.342C510.735 165.4 515.238 171.277 519.799 178.061C520.208 178.645 520.588 179.259 520.998 179.873C525.442 186.627 529.974 194.259 534.477 202.884Z" fill="white"/>
<path d="M494.096 222.152C493.511 222.327 492.956 222.474 492.342 222.62C487.81 200.662 492.429 177.593 505.148 158.998C505.557 159.465 505.937 159.904 506.347 160.372C494.096 178.47 489.739 200.837 494.096 222.152Z" fill="#D7C4AC"/>
<path d="M521.434 210.954C520.937 211.217 520.411 211.509 519.884 211.773C515.382 201.218 515.148 189.025 519.797 178.061C520.206 178.646 520.586 179.26 520.996 179.874C517.048 190.049 517.341 201.218 521.434 210.954Z" fill="#D7C4AC"/>
<path d="M309.75 169.289C309.75 169.289 257.706 252.852 268.085 276.768C275.132 292.996 291.125 292.235 308.025 267.178C331.825 231.946 348.286 193.264 348.286 193.264L309.75 169.289Z" fill="#E8A36F"/>
<path d="M374.717 310.218C359.805 300.335 341.502 288.757 334.222 282.441C316.299 266.857 284.897 241.917 268.845 254.665C268.845 254.665 255.776 280.979 277.997 297.967C299.165 314.135 346.385 331.766 368.401 338.432C370.828 329.076 373.576 319.778 374.717 310.218Z" fill="#E8A36F"/>
<path d="M310.304 264.81C310.07 264.81 309.836 264.723 309.631 264.547C301.298 257.53 289.574 253.291 289.457 253.232C288.872 253.027 288.58 252.384 288.784 251.829C288.989 251.244 289.632 250.952 290.188 251.156C290.685 251.332 302.409 255.6 311.035 262.851C311.502 263.232 311.561 263.933 311.181 264.401C310.947 264.693 310.625 264.84 310.304 264.81Z" fill="#B05935"/>
<path d="M308.491 263.378C307.965 263.348 307.526 262.968 307.439 262.442C306.678 257.559 300.451 252.852 300.392 252.793C299.895 252.443 299.807 251.741 300.158 251.244C300.509 250.747 301.211 250.659 301.708 251.01C302 251.214 308.696 256.302 309.602 262.062C309.69 262.647 309.281 263.231 308.696 263.319C308.608 263.378 308.55 263.378 308.491 263.378Z" fill="#B05935"/>
<path d="M372.962 168.968C372.875 169.582 372.758 170.225 372.641 170.839C372.261 172.827 371.764 174.874 371.12 176.95C369.863 181.131 367.933 185.458 365.653 189.698C365.214 190.487 364.776 191.276 364.308 192.066C354.075 209.813 338.14 225.69 338.14 225.69C336.21 225.427 334.31 225.076 332.438 224.725C329.164 224.052 325.977 223.263 322.907 222.327C322.263 222.152 321.649 221.947 321.035 221.743C300.598 215.31 285.891 204.638 285.891 204.638C287.733 200.954 289.604 197.446 291.476 194.113C291.797 193.557 292.119 193.001 292.411 192.446C299.311 180.254 306.212 170.4 312.79 162.448C313.17 161.98 313.55 161.541 313.901 161.103C316.942 157.477 319.924 154.261 322.79 151.396C323.199 150.986 323.638 150.577 324.047 150.168C331.415 143.033 338.023 138.268 343.344 135.139C343.87 134.847 344.397 134.525 344.894 134.262C351.969 130.315 356.414 129.379 356.706 129.35C362.407 132.888 367.086 137.917 370.068 144.261C370.331 144.788 370.565 145.343 370.799 145.899C373.46 152.36 374.395 160.109 372.962 168.968Z" fill="white"/>
<path d="M372.962 168.967C372.875 169.581 372.758 170.224 372.641 170.838C372.144 170.868 371.617 170.897 371.12 170.897C359.513 171.189 347.905 168.382 337.789 162.856C332.233 159.845 327.175 155.985 322.79 151.395C323.199 150.986 323.637 150.576 324.047 150.167C328.14 154.494 332.935 158.178 338.14 161.073C340.566 162.418 343.081 163.617 345.683 164.64C354.513 168.148 363.781 169.464 372.962 168.967Z" fill="#D7C4AC"/>
<path d="M365.624 189.697C365.186 190.487 364.747 191.276 364.279 192.065C357.291 194.521 350.625 197.972 344.427 202.416C340.479 205.252 336.766 208.38 333.228 211.714C329.603 215.076 326.182 218.672 322.878 222.356C322.235 222.181 321.621 221.976 321.007 221.771C324.954 217.356 329.047 213.088 333.433 209.111C337.936 205.018 342.731 201.217 347.935 197.913C353.637 194.346 359.543 191.627 365.624 189.697Z" fill="#D7C4AC"/>
<path d="M320.773 194.288C314.574 199.404 306.183 199.931 298.727 197.504C296.154 196.656 293.727 195.516 291.447 194.171C291.768 193.615 292.09 193.06 292.382 192.504C300.54 197.475 309.691 199.814 318.317 193.907C325.48 189.025 326.533 180.37 322.615 172.973C320.305 168.646 316.709 165.342 312.761 162.476C313.142 162.009 313.522 161.57 313.872 161.131C318.521 164.552 322.732 168.558 325.071 173.967C328.199 181.16 326.942 189.2 320.773 194.288Z" fill="#D7C4AC"/>
<path d="M370.829 145.899C364.426 147.273 357.613 145.811 351.912 142.419C350.157 141.367 348.52 140.168 347.029 138.852C345.742 137.712 344.514 136.455 343.403 135.139C343.93 134.846 344.456 134.525 344.953 134.262C345.918 135.373 346.941 136.425 348.052 137.419C349.28 138.501 350.567 139.495 351.97 140.372C357.35 143.793 363.929 145.489 370.127 144.261C370.361 144.787 370.595 145.343 370.829 145.899Z" fill="#D7C4AC"/>
<path d="M339.309 225.398C339.513 225.398 339.718 225.339 339.864 225.193C357.933 209.755 368.254 186.54 368.342 186.335C368.547 185.897 368.342 185.371 367.874 185.166C367.436 184.961 366.909 185.166 366.705 185.634C366.617 185.868 356.442 208.703 338.695 223.877C338.314 224.199 338.285 224.754 338.607 225.135C338.812 225.281 339.045 225.398 339.309 225.398Z" fill="#131E07"/>
<path d="M359.951 200.749C360.01 200.749 360.039 200.749 360.097 200.749C366.588 199.609 372.465 195.135 372.699 194.931C373.079 194.638 373.167 194.083 372.874 193.703C372.582 193.323 372.027 193.235 371.646 193.527C371.588 193.557 365.887 197.913 359.805 198.995C359.337 199.083 359.016 199.55 359.103 200.018C359.162 200.457 359.542 200.749 359.951 200.749Z" fill="#131E07"/>
<path d="M480.588 221.45C481.056 221.45 481.436 221.099 481.466 220.632C481.553 219.287 483.688 187.329 478.805 173.704C478.629 173.237 478.132 173.003 477.665 173.178C477.197 173.354 476.963 173.851 477.138 174.318C481.875 187.593 479.711 220.222 479.682 220.544C479.653 221.041 480.004 221.45 480.501 221.48C480.559 221.45 480.588 221.45 480.588 221.45Z" fill="#131E07"/>
<path d="M363.752 363.138L353.402 343.782C350.829 338.958 354.337 333.11 359.805 333.14L520.41 333.695L515.849 358.606L363.752 363.138Z" fill="#A36A24"/>
<path d="M512.604 359.425L368.898 360.478C365.419 360.507 362.904 357.7 363.255 354.25L372.407 265.395C372.758 261.916 375.857 259.08 379.336 259.05L523.042 257.998C526.521 257.969 529.036 260.776 528.685 264.226L519.533 353.08C519.183 356.56 516.083 359.396 512.604 359.425Z" fill="#D5963D"/>
<path d="M367.231 361.472C367.172 361.472 367.143 361.472 367.085 361.472C366.412 361.384 365.944 360.799 366.032 360.127L377.26 264.927C377.347 264.255 377.932 263.787 378.604 263.875C379.277 263.962 379.745 264.547 379.657 265.22L368.43 360.419C368.342 361.004 367.845 361.472 367.231 361.472Z" fill="#A36A24"/>
<path d="M436.761 308.025C436.264 315.159 441.556 321.269 448.603 321.679C455.649 322.088 461.731 316.621 462.228 309.486C462.725 302.352 457.433 296.242 450.386 295.861C443.369 295.423 437.258 300.89 436.761 308.025Z" fill="#A36A24"/>
<path d="M513.803 364.308L368.109 365.36C364.893 365.39 362.408 362.583 362.817 359.396L364.133 349.221L520.499 348.081L519.008 359.688C518.657 362.32 516.435 364.279 513.803 364.308Z" fill="#A36A24"/>
<path d="M136.747 370.127C136.747 370.127 135.11 360.8 136.133 346.473C137.77 323.609 153.354 303.99 175.283 297.324C193.41 291.827 217.386 288.318 242.004 295.569C243.817 296.096 245.63 296.68 247.443 297.353C299.984 316.241 293.025 416.499 284.955 472.811C276.885 529.153 276.359 563.07 252.501 568.625C241.537 571.169 225.543 571.49 211.421 571.11C208.468 571.022 205.632 570.905 202.913 570.788C202.913 570.788 173.236 573.595 157.886 560.643C142.536 547.69 136.747 370.127 136.747 370.127Z" fill="#731F07"/>
<path d="M211.391 571.11C225.513 571.519 241.506 571.198 252.47 568.625C276.329 563.07 276.855 529.124 284.925 472.811C292.994 416.499 299.982 316.241 247.412 297.353C245.599 296.71 243.787 296.125 241.974 295.569C233.056 297.762 224.899 303.756 220.571 316.796C208.818 352.233 228.787 474.8 211.391 571.11Z" fill="#A5410F"/>
<path d="M240.921 561.549C251.797 561.462 260.247 556.901 265.364 548.334C273.375 534.913 284.193 420.095 284.661 415.212C284.719 414.627 284.281 414.072 283.667 414.013C283.053 413.955 282.527 414.394 282.468 415.008C282.351 416.206 271.211 534.212 263.463 547.223C258.551 555.468 250.657 559.532 240.014 559.386C231.915 559.269 225.191 556.608 225.132 556.579C224.577 556.345 223.933 556.637 223.729 557.193C223.495 557.748 223.787 558.392 224.343 558.596C224.635 558.713 231.447 561.403 239.927 561.549C240.248 561.549 240.599 561.549 240.921 561.549Z" fill="#731F07"/>
<path d="M228.702 329.164C229.316 329.164 229.784 328.667 229.784 328.053C229.755 324.603 232.123 316.182 237.912 311.563C241.625 308.58 246.07 307.674 251.069 308.844C263.817 311.797 267.677 327.878 267.706 328.024C267.852 328.609 268.437 328.989 269.022 328.843C269.606 328.696 269.986 328.112 269.84 327.527C269.665 326.825 265.659 309.955 251.566 306.709C245.865 305.394 240.807 306.446 236.538 309.867C230.369 314.808 227.562 323.667 227.591 328.082C227.591 328.696 228.088 329.164 228.702 329.164Z" fill="#731F07"/>
<path d="M234.461 335.86C234.461 335.86 235.163 316.592 249.724 318.024C264.255 319.457 265.191 351.21 252.238 355.42C233.263 361.56 234.461 335.86 234.461 335.86Z" fill="#731F07"/>
<path d="M395.565 59.5582C395.565 59.5582 379.425 69.0021 385.156 75.5222C390.887 82.0716 397.144 80.7558 397.144 80.7558C397.144 80.7558 389.25 89.8489 398.43 95.2287C407.582 100.609 418.195 78.6799 418.195 78.6799C418.195 78.6799 408.664 53.6813 395.565 59.5582Z" fill="#A36A24"/>
<path d="M391.004 55.465C391.004 55.465 380.04 39.7056 383.987 31.1388C387.934 22.5721 394.425 23.7708 394.425 23.7708C394.425 23.7708 392.495 7.95296 400.302 3.88885C408.109 -0.175256 418.167 4.766 418.167 4.766C418.167 4.766 423.897 3.36257 433.312 3.91809C441.879 4.41514 443.487 11.023 443.487 11.023C443.487 11.023 465.971 6.25715 473.076 13.7129C480.181 21.1686 470.298 30.7588 470.298 30.7588C470.298 30.7588 493.192 32.9224 489.157 48.5356C486.028 60.6402 467.287 60.3478 467.287 60.3478C467.287 60.3478 470.152 74.5576 456.907 75.1131C451.586 75.347 406.267 51.5179 391.004 55.465Z" fill="#A36A24"/>
<path d="M394.979 117.1C400.739 122.743 407.669 125.725 413.516 127.333C422.61 129.877 433.106 127.391 440.182 123.24L440.708 109.615L440.825 106.837L441.03 101.574L408.692 78.739L406.821 77.4233L405.564 76.5462L405.096 77.7157L404.57 79.0606L404.716 79.6454C401.821 92.8026 400.184 107.773 394.979 117.1Z" fill="#E8A36F"/>
<path d="M440.299 120.403C427.142 116.778 420.271 104.907 417.406 98.3283C423.75 103.825 431.499 107.538 438.603 107.1C439.364 107.041 440.124 106.954 440.826 106.837L440.299 120.403Z" fill="#131E07"/>
<path d="M404.043 77.7155C404.101 77.7447 404.189 77.7447 404.247 77.7447C404.335 78.1833 404.423 78.6219 404.54 79.0604C404.598 79.2651 404.628 79.4405 404.686 79.6452C408.399 92.9193 424.656 107.948 438.602 107.1C439.363 107.041 440.123 106.954 440.824 106.837C453.982 104.527 457.812 89.4692 456.613 78.5049C456.613 78.5049 456.642 78.0956 456.73 77.3646C456.759 77.1015 456.789 76.8091 456.818 76.4875C456.935 75.4641 457.081 74.0607 457.286 72.4234C457.286 72.3941 457.286 72.3941 457.286 72.3649C457.9 67.4529 458.894 60.231 460.326 53.1554C462.812 40.6707 455.502 21.6366 430.094 15.789C404.686 9.94135 394.073 28.3029 394.131 41.5771C394.131 44.9102 394.774 48.7697 395.71 52.6876C393.254 52.7168 390.593 53.9156 388.985 58.1259C385.974 65.874 394.979 76.312 404.043 77.7155Z" fill="#E8A36F"/>
<path d="M446.176 85.7562C441.937 86.8673 437.463 85.5223 434.598 82.1892C433.925 81.3997 435.036 80.201 435.738 80.9904C438.223 83.885 441.995 85.1422 445.708 84.1481C446.761 83.885 447.2 85.4638 446.176 85.7562Z" fill="#B05935"/>
<g opacity="0.5">
<g opacity="0.5">
<g opacity="0.5">
<g opacity="0.5">
<g opacity="0.5">
<g opacity="0.5">
<path opacity="0.5" d="M419.626 71.02C419.48 72.4235 422.872 73.9731 427.228 74.4701C431.585 74.9672 435.239 74.207 435.415 72.8036C435.59 71.4001 432.169 69.8505 427.813 69.3535C423.427 68.8564 419.772 69.5874 419.626 71.02Z" fill="#B05935"/>
</g>
</g>
</g>
</g>
</g>
</g>
<g opacity="0.5">
<g opacity="0.5">
<g opacity="0.5">
<g opacity="0.5">
<g opacity="0.5">
<g opacity="0.5">
<path opacity="0.5" d="M456.731 77.3941C456.76 77.1309 456.789 76.8385 456.818 76.5169C456.935 75.4936 457.081 74.0902 457.286 72.4528C457.286 72.4236 457.286 72.4236 457.286 72.3943C453.719 72.2481 450.941 72.9791 450.824 74.2071C450.678 75.4059 453.193 76.7216 456.731 77.3941Z" fill="#B05935"/>
</g>
</g>
</g>
</g>
</g>
</g>
<path d="M428.752 54.7933C428.342 54.6764 427.991 54.4425 427.67 54.1208C426.647 53.0975 426.647 51.4309 427.67 50.3783C427.904 50.1444 433.781 44.443 440.856 47.6884C442.172 48.3024 442.757 49.8521 442.143 51.197C441.529 52.5127 439.979 53.0975 438.634 52.4835C434.833 50.7292 431.412 54.0916 431.383 54.1208C430.681 54.8518 429.658 55.0565 428.752 54.7933Z" fill="#A36A24"/>
<path d="M456.031 57.8632C455.3 57.6293 454.657 57.103 454.364 56.3136C453.546 54.2377 449.891 53.7991 448.955 53.7698C447.493 53.7698 446.324 52.5711 446.353 51.1092C446.353 49.6473 447.552 48.4777 449.014 48.507C451.967 48.5362 457.464 49.7935 459.306 54.3546C459.832 55.6996 459.189 57.2492 457.844 57.7755C457.2 58.0386 456.586 58.0386 456.031 57.8632Z" fill="#A36A24"/>
<path d="M451.966 66.986C451.645 68.7695 450.65 70.0852 449.715 69.9391C448.779 69.7929 448.282 68.214 448.604 66.4305C448.925 64.6469 449.919 63.3312 450.855 63.4774C451.791 63.6236 452.288 65.2025 451.966 66.986Z" fill="#131E07"/>
<path d="M446.673 62.8631C446.585 62.8338 446.497 62.7461 446.468 62.6584C446.351 62.4245 446.41 62.1321 446.644 62.0151C446.848 61.8982 451.409 59.3837 454.976 62.4245C455.181 62.5999 455.21 62.8923 455.035 63.097C454.86 63.3016 454.567 63.3309 454.362 63.1554C451.292 60.5532 447.17 62.8338 447.111 62.8631C446.965 62.9215 446.79 62.9215 446.673 62.8631Z" fill="#131E07"/>
<path d="M458.047 57.1322C452.287 55.875 446.615 59.5298 445.328 65.2897C445.065 66.43 445.036 67.5703 445.124 68.6521L446.936 69.3245C446.702 68.155 446.732 66.8978 446.995 65.6698C448.047 60.8162 452.813 57.7755 457.667 58.828C462.491 59.8806 465.561 64.6464 464.508 69.5C463.456 74.3535 458.661 77.3943 453.837 76.3417C451.585 75.8447 449.685 74.5582 448.457 72.8039L446.995 73.6518C448.457 75.8154 450.737 77.4235 453.486 78.0083C459.216 79.2363 464.918 75.6108 466.175 69.8508C467.432 64.0617 463.778 58.3895 458.047 57.1322Z" fill="white"/>
<path d="M421.879 63.8278C423.137 58.0971 428.838 54.4423 434.569 55.6703C440.3 56.9275 443.954 62.629 442.726 68.3597C441.469 74.0904 435.768 77.7451 430.037 76.5171C424.277 75.2599 420.622 69.5584 421.879 63.8278ZM423.517 64.1786C422.464 69.0029 425.534 73.798 430.359 74.8506C435.183 75.9031 439.978 72.8331 441.03 68.0088C442.083 63.1845 439.013 58.3895 434.189 57.3369C429.364 56.2843 424.569 59.3543 423.517 64.1786Z" fill="white"/>
<path d="M463.98 70.3476C464.243 70.4061 464.535 70.3476 464.74 70.143C465.091 69.8213 465.091 69.2951 464.769 68.9442C464.681 68.8565 462.752 66.839 458.863 66.1666C458.395 66.0789 457.957 66.4005 457.869 66.8683C457.781 67.3361 458.103 67.7747 458.571 67.8624C461.875 68.4471 463.512 70.1137 463.541 70.143C463.687 70.2307 463.834 70.3184 463.98 70.3476Z" fill="white"/>
<path d="M423.75 59.9974C416.674 56.6642 411.47 56.8396 408.371 57.5414L408.546 59.2664C411.294 58.6232 416.236 58.36 423.048 61.547C423.458 61.7517 423.984 61.5762 424.188 61.1377C424.364 60.7283 424.188 60.202 423.75 59.9974Z" fill="white"/>
<path d="M395.711 52.6878C395.711 52.6878 401.383 52.1615 404.862 55.5531C408.342 58.9155 408.137 67.57 412.844 68.0378C417.552 68.5056 411.207 46.4308 413.692 43.3608C416.148 40.2908 429.919 43.9163 434.13 38.5072C438.311 33.1274 443.281 33.1566 448.106 38.1856C452.93 43.2146 464.625 47.8635 463.66 40.3492C462.695 32.835 444.977 12.9238 429.539 12.456C414.131 11.9882 398.137 15.3506 393.986 30.7591C389.834 46.1384 395.711 52.6878 395.711 52.6878Z" fill="#A36A24"/>
<path d="M410.857 76.9844C410.213 77.7739 409.453 78.3586 408.693 78.768C407.289 79.4989 405.798 79.6743 404.716 79.6743C404.658 79.4697 404.6 79.2942 404.57 79.0896C404.453 78.651 404.366 78.2124 404.278 77.7446C404.219 77.7446 404.161 77.7154 404.073 77.7154C404.366 77.7446 404.717 77.7446 405.097 77.7154C405.623 77.6861 406.208 77.6277 406.822 77.423C407.728 77.1599 408.634 76.6628 409.365 75.7564C409.687 75.3471 410.301 75.2886 410.71 75.6102C411.12 75.9903 411.178 76.5751 410.857 76.9844Z" fill="#B05935"/>
<path d="M439.772 89.5276C438.456 89.1182 437.842 88.1241 437.813 88.0657C437.638 87.7733 437.725 87.3932 438.018 87.2178C438.31 87.0423 438.69 87.13 438.866 87.4224C438.895 87.4809 439.714 88.7381 441.497 88.4165C441.848 88.358 442.17 88.592 442.228 88.9136C442.287 89.2644 442.053 89.5861 441.731 89.6445C440.942 89.7615 440.298 89.703 439.772 89.5276Z" fill="#B05935"/>
<path d="M402.55 71.0491C402.17 70.9321 401.907 70.5813 401.878 70.172C401.556 63.3887 394.042 59.4123 393.984 59.3538C393.516 59.1199 393.34 58.5352 393.574 58.0673C393.808 57.5995 394.393 57.4241 394.861 57.658C395.212 57.8334 403.398 62.1607 403.808 70.0842C403.837 70.6105 403.428 71.0491 402.901 71.0783C402.784 71.0783 402.667 71.0783 402.55 71.0491Z" fill="#B05935"/>
<path d="M394.835 66.1666C394.718 66.1373 394.602 66.0789 394.514 65.9911C394.104 65.6403 394.046 65.0555 394.397 64.6462C394.485 64.5292 396.707 61.927 400.537 62.6288C401.063 62.7165 401.414 63.2135 401.297 63.7398C401.18 64.2661 400.712 64.6169 400.186 64.5C397.438 64.0029 395.888 65.845 395.888 65.8742C395.596 66.1958 395.186 66.2835 394.835 66.1666Z" fill="#B05935"/>
<path d="M443.807 76.2536C443.573 76.1951 443.397 76.0489 443.251 75.815C442.988 75.3472 443.134 74.7625 443.602 74.4993L449.157 71.2831L444.742 69.3826C444.479 69.2657 444.304 69.061 444.216 68.7979L440.62 57.1026C440.473 56.6055 440.737 56.05 441.263 55.9038C441.76 55.7576 442.315 56.0208 442.462 56.5471L445.941 67.8038L451.701 70.289C452.023 70.4352 452.256 70.7568 452.286 71.1077C452.315 71.4585 452.11 71.8094 451.818 71.9848L444.625 76.1659C444.333 76.3121 444.04 76.3413 443.807 76.2536Z" fill="#B05935"/>
<path d="M441.79 63.3893C442.053 63.4478 442.346 63.3893 442.55 63.1846C442.813 62.9215 444.217 61.7812 445.679 63.2431C446 63.5647 446.556 63.5647 446.877 63.2431C447.199 62.9215 447.199 62.366 446.877 62.0443C444.714 59.8515 442.346 61.021 441.381 61.9566C441.03 62.2782 441.03 62.8045 441.351 63.1554C441.498 63.2723 441.644 63.3601 441.79 63.3893Z" fill="white"/>
<path d="M436.38 64.5587C436.059 66.3422 435.064 67.658 434.129 67.5118C433.193 67.3656 432.696 65.7867 433.018 64.0032C433.339 62.2197 434.333 60.9039 435.269 61.0501C436.175 61.1963 436.673 62.7752 436.38 64.5587Z" fill="#131E07"/>
<path d="M430.241 60.962C430.153 60.9328 430.065 60.8743 430.007 60.7866C429.861 60.5819 429.89 60.2603 430.095 60.1141C430.27 59.9679 434.48 56.8979 438.427 59.4708C438.661 59.617 438.72 59.9094 438.574 60.1433C438.427 60.3772 438.135 60.4357 437.901 60.2895C434.539 58.0966 430.709 60.8743 430.679 60.9035C430.533 60.962 430.387 60.9912 430.241 60.962Z" fill="#131E07"/>
<path d="M201.393 57.3066L164.494 20.9635C164.026 20.4957 163.383 20.2326 162.681 20.2618C162.009 20.291 161.366 20.5834 160.927 21.0805L108.649 79.2352C108.24 79.703 108.006 80.2878 108.006 80.9018L111.953 620.58L116.894 620.551L112.947 81.8082L162.886 26.2849L197.943 60.8444C198.907 61.8093 200.486 61.78 201.422 60.8152C202.387 59.8211 202.358 58.2715 201.393 57.3066Z" fill="#131E07"/>
<path d="M165.313 642.918L63.8275 643.649L63.7983 639.848C63.6813 625.668 75.1134 614.089 89.294 614.002L139.467 613.622C153.647 613.505 165.226 624.937 165.313 639.117V642.918Z" fill="#131E07"/>
<path d="M252.12 74.8786C260.278 84.2348 259.313 98.4738 249.957 106.631C240.601 114.789 226.362 113.824 218.204 104.468C210.047 95.0822 211.012 80.8724 220.368 72.715C229.724 64.5283 243.963 65.4931 252.12 74.8786Z" fill="white"/>
<path d="M284.604 52.4529C260.19 30.6704 222.794 29.9395 197.474 51.9851C172.154 74.0599 167.797 111.192 186.042 138.355L284.604 52.4529Z" fill="#131E07"/>
<path d="M735.722 533.656L735.459 535.644L735.166 538.012L734.786 540.819L733.295 552.573L733.12 553.859L731.541 566.168L731.365 567.484L725.079 616.283L724.933 617.598L721.688 642.773L651.019 643.299L649.996 636.165L649.82 634.849L649.265 631.019L649.06 629.762L645.961 608.125L645.756 606.605L638.797 558.157L638.563 556.637L637.306 547.865L635.376 534.387L735.722 533.656Z" fill="#D5963D"/>
<path d="M658.412 587.834C657.213 595.962 652.623 603.389 645.956 608.096L645.752 606.605C654.055 600.377 658.88 589.501 656.979 579.15C655.196 569.473 647.857 561.52 638.793 558.128L638.559 556.608C641.366 557.573 644.056 558.976 646.483 560.76C655.049 566.987 659.961 577.279 658.412 587.834Z" fill="#A36A24"/>
<path d="M733.295 552.573L733.12 553.83C724.582 552.982 716.6 555.73 709.583 560.584C703.56 564.765 697.478 569.852 689.789 569.94C683.21 569.999 676.632 566.519 673.211 560.876C669.527 554.824 669.644 547.017 673.181 540.965C673.62 540.205 674.79 540.877 674.351 541.638C669.614 549.736 671.778 560.525 679.76 565.671C686.836 570.232 694.759 568.829 701.572 564.56C708.033 560.496 713.618 555.438 721.191 553.479C725.225 552.426 729.319 552.163 733.295 552.573Z" fill="#A36A24"/>
<path d="M735.458 535.644L735.166 538.012C734.493 539.065 733.733 540.03 732.885 540.965C729.026 545.263 723.704 548.187 717.886 548.918C711.307 549.737 704.612 547.573 699.583 543.363C698.53 542.486 697.536 541.492 696.63 540.439C696.074 539.796 697.01 538.831 697.565 539.474C698.764 540.878 700.109 542.135 701.571 543.217C706.044 546.491 711.6 548.187 717.213 547.632C722.418 547.135 727.242 544.708 730.897 541.082C732.417 539.562 733.762 537.837 734.815 535.966C734.961 535.702 735.224 535.615 735.458 535.644Z" fill="#A36A24"/>
<path d="M731.539 566.169L731.364 567.484C728.82 567.601 726.305 568.42 724.171 569.999C719.961 573.127 717.972 578.741 719.142 583.829C720.078 587.863 722.592 591.489 722.709 595.758C722.797 599.179 721.247 602.336 719.025 604.88C713.265 611.488 704.201 612.891 697.447 618.067C690.489 623.417 688.208 633.592 692.564 641.34C692.886 641.925 693.266 642.48 693.646 643.036H692.009C691.687 642.539 691.366 642.013 691.103 641.457C687.302 634.001 688.822 624.236 694.904 618.476C702.125 611.605 713.938 610.845 719.493 602.015C722.768 596.84 720.604 592.161 718.703 586.986C717.183 582.893 716.978 578.712 718.791 574.677C721.189 569.385 726.247 566.403 731.539 566.169Z" fill="#A36A24"/>
<path d="M712.126 630.755C712.038 636.106 715.138 640.58 719.523 642.802L716.95 642.831C713.003 640.024 710.489 635.346 710.81 630.083C711.278 622.276 717.681 616.604 725.108 616.283L724.932 617.598C718.061 617.978 712.214 623.534 712.126 630.755Z" fill="#A36A24"/>
<path d="M706.657 589.501C706.043 595.377 700.517 598.828 696.277 602.102C690.693 606.43 685.284 611.137 681.19 616.955C675.927 624.44 673.179 634.586 675.898 643.123H674.495C672.097 635.112 674.085 625.785 678.53 618.505C681.892 613.008 686.482 608.359 691.394 604.237C693.792 602.219 696.336 600.348 698.821 598.418C701.774 596.138 704.786 593.302 705.253 589.384C706.247 580.758 695.137 579.501 689.055 579.969C682.857 580.437 676.395 582.571 672.682 587.863C669.144 592.892 668.501 599.325 667.448 605.231C666.308 611.488 664.525 617.832 660.665 623.008C657.858 626.779 653.677 629.732 649.204 631.019L649.028 629.762C651.104 629.206 653.092 628.241 654.847 626.955C661.221 622.277 664.174 614.558 665.694 607.073C666.864 601.401 667.331 595.465 669.817 590.144C672.097 585.261 676.161 581.869 681.22 580.144C686.453 578.332 692.973 577.776 698.324 579.238C703.002 580.525 707.212 584.355 706.657 589.501Z" fill="#A36A24"/>
<path d="M663.797 643.183H662.422C661.867 640.814 660.727 638.621 658.563 637.247C655.785 635.434 652.803 635.288 649.996 636.136L649.821 634.85C653.359 633.768 657.101 634.148 660.376 636.926C662.276 638.592 663.3 640.814 663.797 643.183Z" fill="#A36A24"/>
<path d="M735.722 533.656L735.459 535.644L735.166 538.012L734.786 540.819L732.886 540.965L730.898 541.111L701.601 543.216L699.584 543.363L637.306 547.865L635.376 534.387L735.722 533.656Z" fill="#171612"/>
<path d="M744.667 534.182C705.284 537.807 665.87 538.1 626.457 535.059L626.37 524.329L744.58 523.481L744.667 534.182Z" fill="#D5963D"/>
<path d="M716.744 397.114C713.09 401.558 710.546 417.96 703.5 420.65C698.646 422.492 696.015 415.504 705.371 406.558C711.394 400.798 714.055 393.956 715.166 389.804C713.441 382.582 711.218 375.185 708.382 368.46C702.973 373.518 694.319 380.711 691.804 377.319C689.056 373.635 697.096 361.882 701.57 355.859C699.435 352.818 697.096 350.157 694.465 348.052C690.196 344.602 685.255 342.672 679.524 342.848C675.402 342.994 671.63 344.514 668.238 347.058C673.15 356.619 680.431 372.787 675.431 376.559C670.811 380.068 663.97 366.677 659.671 356.677C653.795 365.887 649.906 378.46 648.269 390.593C649.438 392.757 651.485 395.272 654.964 397.728C664.203 404.277 675.197 417.522 669.759 420.533C664.32 423.545 658.56 415.738 654.467 408.78C652.362 405.213 649.994 402.318 647.45 400.418C647.391 402.552 647.391 404.599 647.479 406.616C649.204 444.713 686.395 444.421 686.395 444.421C686.395 444.421 723.615 435.562 716.744 397.114ZM669.934 398.195C666.25 398.195 660.344 391.354 657.566 387.553C654.789 383.723 656.982 381.12 659.613 381.822C659.642 381.822 659.671 381.851 659.73 381.851C663.443 382.962 674.7 398.225 669.934 398.195ZM702.33 388.839C702.359 388.839 702.418 388.81 702.447 388.81C705.078 388.05 707.271 389.804 706.043 393.166C704.464 397.581 702.301 399.365 698.997 397.728C696.892 396.704 698.617 389.979 702.33 388.839Z" fill="#7F784B"/>
<path d="M682.011 387.816C685.403 404.452 684.467 421.674 683.356 438.515C682.157 456.496 680.491 474.536 681.309 492.576C681.777 502.81 683.063 513.014 685.607 522.955C685.812 523.803 687.128 523.422 686.923 522.575C677.83 486.875 685.695 450.415 685.695 414.276C685.695 405.271 685.11 396.266 683.327 387.406C683.151 386.588 681.835 386.968 682.011 387.816Z" fill="#171612"/>
<path d="M665.695 444.742C665.373 450.502 672.975 465.238 668.882 471.583C666.046 475.939 659.818 471.817 662.099 459.098C663.561 450.882 661.66 443.807 660.14 439.801C654.497 434.977 648.328 430.328 642.071 426.556C640.696 433.836 637.948 444.742 633.913 443.485C629.527 442.111 629.089 427.901 629.147 420.387C625.639 419.188 622.159 418.428 618.797 418.282C613.33 418.019 608.184 419.363 603.652 422.901C600.406 425.445 598.243 428.895 597.015 432.959C606.634 437.784 622.013 446.555 620.23 452.52C618.563 458.075 605.143 451.292 595.787 445.766C596.488 456.671 600.757 469.127 606.576 479.887C608.798 480.939 611.926 481.758 616.195 481.699C627.51 481.524 644.234 485.763 641.603 491.377C639.001 497.02 629.732 494.096 622.306 490.909C618.505 489.272 614.879 488.336 611.692 488.307C612.891 490.061 614.119 491.728 615.376 493.278C639.235 523.013 669.116 500.85 669.116 500.85C669.116 500.85 693.91 471.788 665.695 444.742ZM628.533 473.249C625.551 475.413 616.75 473.366 612.277 471.934C607.774 470.501 608.008 467.08 610.552 466.115C610.581 466.115 610.61 466.086 610.669 466.086C614.294 464.77 632.393 470.443 628.533 473.249ZM649.176 446.584C649.205 446.555 649.234 446.526 649.234 446.497C650.901 444.333 653.707 444.45 654.702 447.9C656.017 452.403 655.316 455.093 651.69 455.736C649.439 456.145 646.866 449.684 649.176 446.584Z" fill="#7F784B"/>
<path d="M632.098 457.695C640.899 465.677 649.612 473.951 656.746 483.512C662.214 490.822 666.424 498.862 670.254 507.107C672.973 512.955 675.546 518.861 678.207 524.709C678.558 525.498 679.727 524.796 679.377 524.007C675.02 514.358 670.956 504.534 665.868 495.237C661.307 486.904 655.635 479.331 649.173 472.402C644.086 466.905 638.618 461.759 633.063 456.73C632.42 456.145 631.455 457.11 632.098 457.695Z" fill="#171612"/>
<path d="M698.501 507.488C698.501 507.488 728.558 529.417 752.182 499.506C753.41 497.927 754.638 496.261 755.808 494.506C752.621 494.565 749.024 495.5 745.223 497.196C737.826 500.442 728.587 503.424 725.926 497.81C723.266 492.196 739.961 487.84 751.247 487.928C755.515 487.957 758.615 487.109 760.837 486.027C766.597 475.238 770.778 462.724 771.362 451.819C762.065 457.432 748.703 464.303 746.978 458.777C745.136 452.813 760.457 443.924 770.047 439.041C768.789 434.977 766.597 431.556 763.351 429.013C758.819 425.504 753.644 424.218 748.176 424.51C744.814 424.685 741.364 425.475 737.855 426.703C737.972 434.217 737.651 448.456 733.265 449.86C729.259 451.146 726.394 440.24 724.991 432.989C718.734 436.79 712.623 441.497 707.009 446.38C705.489 450.415 703.647 457.52 705.196 465.707C707.565 478.425 701.366 482.577 698.501 478.25C694.349 471.964 701.834 457.169 701.483 451.409C673.473 478.601 698.501 507.488 698.501 507.488ZM756.714 472.256C756.743 472.285 756.802 472.285 756.831 472.285C759.404 473.25 759.638 476.642 755.164 478.133C750.691 479.595 741.92 481.7 738.908 479.566C734.99 476.817 753.059 470.999 756.714 472.256ZM715.576 462.257C711.95 461.643 711.219 458.953 712.506 454.45C713.5 451 716.278 450.854 717.973 452.988C718.003 453.017 718.032 453.047 718.032 453.076C720.371 456.175 717.857 462.637 715.576 462.257Z" fill="#7F784B"/>
<path d="M734.229 463.105C716.306 481.35 702.096 502.46 688.383 523.95C687.915 524.681 689.085 525.353 689.553 524.622C703.207 503.249 717.329 482.227 735.194 464.041C735.808 463.427 734.843 462.462 734.229 463.105Z" fill="#171612"/>
<path d="M744.58 523.452C744.58 524.533 718.119 525.615 685.489 525.849C652.83 526.083 626.37 525.41 626.37 524.299C626.37 523.218 652.83 522.136 685.46 521.902C718.119 521.668 744.58 522.37 744.58 523.452Z" fill="#171612"/>
</svg>
